<svg xmlns="http://www.w3.org/2000/svg" viewBox="0 0 253.04 52.73"><defs><style>.a{fill:#4c4c4c;}</style></defs><title>call-to</title><path d="M23.82,9.26a3.37,3.37,0,0,0,2,.81,2.14,2.14,0,0,0,2.24-1.95c0-.79-.81-1.33-2.16-1.33a6.54,6.54,0,0,0-3,.8c0,.63,0,1.25,0,1.82s0,1.06,0,1.5c0,.08,0,.18-.1.22a4.07,4.07,0,0,1-1,.27c-.15,0-.14-.18-.21-.25a5.63,5.63,0,0,0-2.07-.92,4.47,4.47,0,0,1-.32.38.21.21,0,0,1-.1,0,.31.31,0,0,1-.14,0,2.79,2.79,0,0,1-.84-.62.44.44,0,0,1,0-.11.13.13,0,0,1,.08-.11,3.25,3.25,0,0,0,.38-.22A24,24,0,0,1,22,7V4.62a9.13,9.13,0,0,1-1.57.22,2.71,2.71,0,0,1-1.13-.24l-.21-1.13v0a.05.05,0,0,1,.06-.06h0a4,4,0,0,0,1.6.41A6.71,6.71,0,0,0,22,3.59c0-1,0-2-.08-2.7.91,0,1.6,0,1.6.22s-.17.22-.39.25c0,.38,0,1.08-.07,1.92a21.48,21.48,0,0,0,2.17-.83l.06,1.16c-.7.27-1.48.52-2.25.74,0,.7,0,1.46,0,2.23a7.73,7.73,0,0,1,3.11-.7c1.77,0,3.22.76,3.22,2.27a3.29,3.29,0,0,1-3.54,3,3.12,3.12,0,0,1-1.71-.5ZM21.94,8.07a13.13,13.13,0,0,0-1.88,1.49c.63.2,1.22.35,1.82.55C21.93,9.43,21.94,8.76,21.94,8.07Zm4.64-5.13c1.61,0,3.07.34,3.53,1l-.39,1c0,.06,0,.08-.07.08s0,0-.07-.06c-.56-.84-1.95-1.11-3.39-1.13Z"/><path d="M34.74,8.67c-.66.24-1.36.46-2.12.67l-1.16-.83a17.13,17.13,0,0,0,5.93-2.2A14.44,14.44,0,0,1,35.7,4.86a16.59,16.59,0,0,1-2.76,2L31.8,6.37a12.21,12.21,0,0,0,4.94-4.06l1,.29c.15,0,.24.11.24.17s-.15.17-.46.2a4.31,4.31,0,0,1-.28.35H40.8c.07,0,.15-.08.22-.08a4.53,4.53,0,0,1,.6.48.21.21,0,0,1,.1.15c0,.08-.11.15-.32.21A15.12,15.12,0,0,1,39,6.3,15.09,15.09,0,0,0,44.53,8L43.35,9a19.36,19.36,0,0,1-2-.57l0,4h-1V12H35.66v.53h-1Zm-2.47-7.4h5.08V1.05s0-.59,0-1l1.37.1c.14,0,.25.1.25.2s-.13.21-.46.27c0,.31,0,.6,0,.6v.08h5.1V4.1H42.46V2.23h-9.1V4.08H32.27Zm9,7.1a16.13,16.13,0,0,1-3.07-1.48,17.77,17.77,0,0,1-2.77,1.48ZM40.44,11V9.32H35.68V11ZM36.35,4.29a9.92,9.92,0,0,0,1.82,1.5A14,14,0,0,0,40,4.16H36.47Z"/><path d="M47.53,10.28c0-1,.07-3.6.1-5.11a11.86,11.86,0,0,1-1.44,3.36l-1-.31a12.51,12.51,0,0,0,2.26-4.68H45.81V2.61h1.75V1s0-.5,0-1c0,0,.66,0,1.09.08.18,0,.29.1.29.18s-.13.18-.38.25a2.46,2.46,0,0,0,0,.43V2.61h1.36v.94H48.57a9.87,9.87,0,0,0,1.48,2.75l-.74.41a8.72,8.72,0,0,1-.9-2.16c0,1.72.11,4.5.11,5.83v2.25h-1Zm5.87-.74a24.27,24.27,0,0,1-3,1.92,1.07,1.07,0,0,1,.07.29c0,.13-.06.18-.13.18a.38.38,0,0,1-.22-.15c-.34-.43-.69-1-.69-1a18.68,18.68,0,0,0,4-2.28V6.77H50.14v-1H53.4V4.72H50.59V3.81H53.4v-1H50.28V1.88h4.17A7.35,7.35,0,0,0,55.22,0s.91.21,1.16.29.21.13.21.2-.1.15-.36.15h-.11a5.81,5.81,0,0,1-.7,1.23H57.8v.91H54.34v1h3.19v.91H54.34V5.81h3.6v1h-3.6v.31a9,9,0,0,0,1,1.64,6.36,6.36,0,0,0,1.6-1.58,6.4,6.4,0,0,1,.8.62A.42.42,0,0,1,57.9,8c0,.07-.07.11-.18.11a.81.81,0,0,1-.29-.06,13.52,13.52,0,0,1-1.58,1.26,7,7,0,0,0,2.82,1.95L57.55,12a9.26,9.26,0,0,1-3.26-3.5c0,1,.08,2.54.08,2.61v.13c0,1.34-1.05,1.33-2.16,1.34,0,0-.59-1-.66-1.11a8,8,0,0,0,1.12.13c.46,0,.73-.14.73-.63ZM50.7,7.14a7.71,7.71,0,0,1,1.82,1.33l-.66.69a6.86,6.86,0,0,0-1.79-1.44Zm1.51-7a8.68,8.68,0,0,1,.9,1.39l-1,.29A6.49,6.49,0,0,0,51.33.35Z"/><path d="M61.32,9.27h7.42v-5H61.39V3.05H70v8h-1.2v-.59H61.32Z"/><path d="M74.55,5.69H85.24V6.86H74.55Z"/><path d="M88.23,10.63a6.8,6.8,0,0,0,3.18-5.9V3.87a12.84,12.84,0,0,0,0-1.36c1.23,0,1.57.1,1.57.27s-.13.2-.36.24c0,.62,0,1.06,0,1.44v.18a8.18,8.18,0,0,1-3.05,6.68Zm7-1.25a10.7,10.7,0,0,0,4.24-5l.7,1.46a13.31,13.31,0,0,1-5,5c0,.1-.06.17-.13.17-.22,0-1-.91-1-1s.08-.14.08-.32c0-1.16.07-6.36.07-6.36,0-.27,0-.84,0-1.18,1.58.08,1.6.1,1.6.27s-.11.21-.38.24c0,.39,0,1,0,1Z"/><path d="M102.16,6.16c.76-.21,2.12-.62,3.59-1.05,0-1.43.06-2.69.06-2.69,0-.39,0-.7,0-1.05,0,0,1,0,1.39.1.2,0,.28.11.28.18s-.18.22-.42.24a7.82,7.82,0,0,0,0,.78l-.06,2.07c2.44-.73,4.79-1.46,4.85-1.49s.14-.15.25-.15,1.08.43,1.08.63-.1.17-.28.25a17.08,17.08,0,0,1-2.69,4.16l-1.32-.28a12.1,12.1,0,0,0,2.54-3.4c-.83.27-2.63.84-4.45,1.4,0,1.28-.06,2.28-.06,2.44v.1c0,1.26.27,1.85,2.27,1.85a19.32,19.32,0,0,0,3.61-.45l-.46,1.36a22.06,22.06,0,0,1-3.07.24c-1.65,0-3.5-.27-3.5-2.52v0c0-.43,0-1.47,0-2.61l-3.18,1Z"/><path d="M118.12,2a8.7,8.7,0,0,1,3.14,2.44l-1,1a8.34,8.34,0,0,0-3-2.73Zm9.23,3.07a18,18,0,0,1-8.5,6c-.06.24-.13.36-.22.36s-1.12-1.09-1.25-1.3a.11.11,0,0,1,0-.07s0-.05.1-.07c3.89-.55,7.4-3.45,9.4-6.32Z"/><path d="M130.72,10.83a11.77,11.77,0,0,0,5.69-3.37A9.12,9.12,0,0,0,134,5.73l.74-.73a11.36,11.36,0,0,1,2.51,1.49A14.69,14.69,0,0,0,139,3.4h-3.57a14.57,14.57,0,0,1-3.56,3.35l-1.18-.64a12.27,12.27,0,0,0,5-5.36c.24.07.87.21,1.2.35.18.07.27.15.27.22s-.18.17-.39.17h-.1c-.18.32-.38.64-.57.94,1.41,0,3.36,0,3.43,0s.17-.1.24-.1,1,.62,1,.81-.11.15-.31.2c-1.5,3.14-4,6.93-8.56,8.35Z"/><path d="M144.55,5.69h10.69V6.86H144.55Z"/><path d="M36.33,34.79q0-6,2.81-9.62a7.34,7.34,0,0,1,12.19,0q2.81,3.59,2.81,9.79t-2.81,9.77A7.48,7.48,0,0,1,45.25,48a7.56,7.56,0,0,1-6.11-3.25Q36.33,41.13,36.33,34.79Zm3.76,0a15,15,0,0,0,1.45,7q1.45,2.73,3.7,2.73t3.7-2.73a14.27,14.27,0,0,0,1.47-6.85,14.37,14.37,0,0,0-1.47-6.86q-1.47-2.71-3.7-2.71t-3.69,2.71A13.94,13.94,0,0,0,40.09,34.8Z"/><path d="M75.16,25.92H67.39l-1.24,4.17.53,0,.47,0a7.94,7.94,0,0,1,6,2.48,8.75,8.75,0,0,1,2.37,6.32,8.73,8.73,0,0,1-2.68,6.57A9.33,9.33,0,0,1,66.11,48q-5,0-7.91-4.71l2.88-2.43a8.89,8.89,0,0,0,2.4,2.86,5.55,5.55,0,0,0,6.8-.78,5.63,5.63,0,0,0,1.55-4,5.36,5.36,0,0,0-1.54-4,5.13,5.13,0,0,0-3.84-1.58A5.6,5.6,0,0,0,62,35.6H60.77l4-13.27H75.16Z"/><path d="M88.61,44H98v3.58H81.06L89.82,37q1.29-1.58,2.17-2.75a21.14,21.14,0,0,0,1.33-1.94,5.47,5.47,0,0,0,.93-2.76,3.93,3.93,0,0,0-1.24-3,4.26,4.26,0,0,0-3.07-1.19q-3.82,0-4.38,4.53H81.76q.92-8,8.06-8A8.14,8.14,0,0,1,95.6,24.1,7.11,7.11,0,0,1,98,29.53a8.24,8.24,0,0,1-1.09,4A19.67,19.67,0,0,1,95.23,36q-1.07,1.41-2.7,3.34Z"/><path d="M102.89,37.88h7.29v3.2h-7.29Z"/><path d="M118,34.44a6.2,6.2,0,0,1-2.78-5.34A6.88,6.88,0,0,1,117.33,24a7.28,7.28,0,0,1,5.28-2.06A7.15,7.15,0,0,1,127.83,24a6.89,6.89,0,0,1,2.09,5.15,6.35,6.35,0,0,1-2.76,5.31,5.86,5.86,0,0,1,2.39,2.38,7,7,0,0,1,.9,3.53,7.34,7.34,0,0,1-2.19,5.49A7.69,7.69,0,0,1,122.65,48a8.05,8.05,0,0,1-5.77-2.16,7.14,7.14,0,0,1-2.29-5.43A6.08,6.08,0,0,1,118,34.44Zm.34,5.82a4.19,4.19,0,0,0,1.21,3,4.17,4.17,0,0,0,5.92,0,4.23,4.23,0,0,0,0-5.95,4.17,4.17,0,0,0-7.13,2.92Zm.46-11.18a3.77,3.77,0,0,0,3.77,3.82,3.77,3.77,0,1,0-2.66-6.44A3.57,3.57,0,0,0,118.8,29.08Z"/><path d="M140.66,34.44a6.2,6.2,0,0,1-2.78-5.34A6.88,6.88,0,0,1,140,24a7.28,7.28,0,0,1,5.28-2.06A7.15,7.15,0,0,1,150.49,24a6.89,6.89,0,0,1,2.09,5.15,6.35,6.35,0,0,1-2.76,5.31,5.86,5.86,0,0,1,2.39,2.38,7,7,0,0,1,.9,3.53,7.34,7.34,0,0,1-2.19,5.49A7.69,7.69,0,0,1,145.31,48a8.05,8.05,0,0,1-5.77-2.16,7.14,7.14,0,0,1-2.29-5.43A6.08,6.08,0,0,1,140.66,34.44Zm.34,5.82a4.19,4.19,0,0,0,1.21,3,4.17,4.17,0,0,0,5.92,0,4.23,4.23,0,0,0,0-5.95A4.17,4.17,0,0,0,141,40.26Zm.46-11.18a3.77,3.77,0,0,0,3.77,3.82,3.77,3.77,0,1,0-2.66-6.44A3.57,3.57,0,0,0,141.46,29.08Z"/><path d="M163.32,34.44a6.2,6.2,0,0,1-2.78-5.34A6.88,6.88,0,0,1,162.65,24a7.28,7.28,0,0,1,5.28-2.06A7.15,7.15,0,0,1,173.16,24a6.89,6.89,0,0,1,2.09,5.15,6.35,6.35,0,0,1-2.76,5.31,5.86,5.86,0,0,1,2.39,2.38,7,7,0,0,1,.9,3.53,7.34,7.34,0,0,1-2.19,5.49A7.69,7.69,0,0,1,168,48a8.05,8.05,0,0,1-5.77-2.16,7.14,7.14,0,0,1-2.29-5.43A6.08,6.08,0,0,1,163.32,34.44Zm.34,5.82a4.19,4.19,0,0,0,1.21,3,4.17,4.17,0,0,0,5.92,0,4.23,4.23,0,0,0,0-5.95,4.17,4.17,0,0,0-7.13,2.92Zm.46-11.18a3.77,3.77,0,0,0,3.77,3.82,3.77,3.77,0,1,0-2.66-6.44A3.57,3.57,0,0,0,164.12,29.08Z"/><path d="M180.16,37.88h7.29v3.2h-7.29Z"/><path d="M195.27,34.44a6.2,6.2,0,0,1-2.78-5.34A6.88,6.88,0,0,1,194.6,24a7.28,7.28,0,0,1,5.28-2.06A7.15,7.15,0,0,1,205.11,24a6.89,6.89,0,0,1,2.09,5.15,6.35,6.35,0,0,1-2.76,5.31,5.86,5.86,0,0,1,2.39,2.38,7,7,0,0,1,.9,3.53,7.34,7.34,0,0,1-2.19,5.49A7.69,7.69,0,0,1,199.92,48a8.05,8.05,0,0,1-5.77-2.16,7.14,7.14,0,0,1-2.29-5.43A6.08,6.08,0,0,1,195.27,34.44Zm.34,5.82a4.19,4.19,0,0,0,1.21,3,4.17,4.17,0,0,0,5.92,0,4.23,4.23,0,0,0,0-5.95,4.17,4.17,0,0,0-7.13,2.92Zm.46-11.18a3.77,3.77,0,0,0,3.77,3.82,3.77,3.77,0,1,0-2.66-6.44A3.57,3.57,0,0,0,196.07,29.08Z"/><path d="M217.93,34.44a6.2,6.2,0,0,1-2.78-5.34A6.88,6.88,0,0,1,217.26,24a7.28,7.28,0,0,1,5.28-2.06A7.15,7.15,0,0,1,227.77,24a6.89,6.89,0,0,1,2.09,5.15,6.35,6.35,0,0,1-2.76,5.31,5.86,5.86,0,0,1,2.39,2.38,7,7,0,0,1,.9,3.53,7.34,7.34,0,0,1-2.19,5.49A7.69,7.69,0,0,1,222.58,48a8.05,8.05,0,0,1-5.77-2.16,7.14,7.14,0,0,1-2.29-5.43A6.08,6.08,0,0,1,217.93,34.44Zm.34,5.82a4.19,4.19,0,0,0,1.21,3,4.17,4.17,0,0,0,5.92,0,4.23,4.23,0,0,0,0-5.95,4.17,4.17,0,0,0-7.13,2.92Zm.46-11.18a3.77,3.77,0,0,0,3.77,3.82,3.77,3.77,0,1,0-2.66-6.44A3.57,3.57,0,0,0,218.73,29.08Z"/><path d="M240.59,34.44a6.2,6.2,0,0,1-2.78-5.34A6.88,6.88,0,0,1,239.92,24a7.28,7.28,0,0,1,5.28-2.06A7.15,7.15,0,0,1,250.43,24a6.89,6.89,0,0,1,2.09,5.15,6.35,6.35,0,0,1-2.76,5.31,5.86,5.86,0,0,1,2.39,2.38,7,7,0,0,1,.9,3.53,7.34,7.34,0,0,1-2.19,5.49A7.69,7.69,0,0,1,245.24,48a8.05,8.05,0,0,1-5.77-2.16,7.14,7.14,0,0,1-2.29-5.43A6.08,6.08,0,0,1,240.59,34.44Zm.34,5.82a4.19,4.19,0,0,0,1.21,3,4.17,4.17,0,0,0,5.92,0,4.23,4.23,0,0,0,0-5.95,4.17,4.17,0,0,0-7.13,2.92Zm.46-11.18a3.77,3.77,0,0,0,3.77,3.82,3.77,3.77,0,1,0-2.66-6.44A3.57,3.57,0,0,0,241.39,29.08Z"/><path class="a" d="M.27,23.1C2.06,22,4,21.27,5.84,20.32c.61-.31,1.23-.6,1.85-.88A1.33,1.33,0,0,1,9.57,20q1.64,2.75,3.26,5.51a1.31,1.31,0,0,1-.36,1.94c-.75.58-1.52,1.14-2.28,1.7A1.38,1.38,0,0,0,9.68,31a35,35,0,0,0,5.77,9.74,1.38,1.38,0,0,0,1.82.41c.84-.39,1.67-.78,2.51-1.15a1.35,1.35,0,0,1,2,.65q1.6,2.68,3.18,5.37a1.33,1.33,0,0,1-.35,2c-2,1.48-4.1,3-6.16,4.42a5.47,5.47,0,0,1-.61.33l-1.07-.27a6.59,6.59,0,0,0-1.32-1.3A57.91,57.91,0,0,1,1.57,29.5C.91,27.76.59,25.93,0,24.17Z"/></svg>