<svg xmlns="http://www.w3.org/2000/svg" viewBox="0 0 294.15 42.92"><defs><style>.cls-1{fill:#040000;}</style></defs><title>copy</title><g id="レイヤー_2" data-name="レイヤー 2"><g id="レイヤー_1-2" data-name="レイヤー 1"><path class="cls-1" d="M.41,42c3,0,3.84-.77,4-1.74H.9v-.91H4.48c0-.49,0-1.15,0-1.15s.77,0,1.16.08c.13,0,.21.07.21.15s-.11.2-.36.25c0,0,0,.34,0,.66H8.18V39a4.82,4.82,0,0,0,0-.69s.9,0,1.19.1c.14,0,.21.08.21.15s-.13.18-.38.24a3.66,3.66,0,0,0,0,.42v.15h3.68v.91H9.13v2.47h-1V40.3H5.39c-.2,1.46-1.23,2.35-4,2.62Zm.31-4.2A9.15,9.15,0,0,0,4,37a6.35,6.35,0,0,0-1.15-.87l.66-.45a8.3,8.3,0,0,1,1.22.9,3.1,3.1,0,0,0,1.05-1.16H3.42a9.2,9.2,0,0,1-1.88,1.05l-1-.6A7.46,7.46,0,0,0,3.84,34H1v-.78H12.72V34H8.49c0,.38,0,.94,0,1.46a14.84,14.84,0,0,0,3.35-1.12s.43.46.69.8a.23.23,0,0,1,0,.13c0,.08-.07.14-.18.14a.67.67,0,0,1-.34-.13,34.94,34.94,0,0,1-3.57,1v.53c0,.49.64.52,1.57.52,1.61,0,1.85-.1,1.93-1.77l1,.78c-.32,1.79-1.12,1.83-3,1.83-1.7,0-2.41-.31-2.41-1.16,0-.36,0-2.16,0-3H5a8.25,8.25,0,0,1-.7.69H6.19c.1,0,.15-.08.24-.08a2.16,2.16,0,0,1,.74.59c0,.07-.1.13-.28.17-.38.64-1.42,2.58-5.32,3.25ZM.64,31.18H4.45V31s0-.35,0-.85c0,0,.9,0,1.2.1.15,0,.24.1.24.17s-.14.21-.42.27a1.74,1.74,0,0,0,0,.35v.18H8.17V31s0-.35,0-.85c0,0,.9,0,1.21.1.15,0,.24.1.24.17s-.13.21-.42.27a4.09,4.09,0,0,0,0,.45v.08h3.81v.88H9.12v.73h-1v-.73H5.41v.71h-1v-.71H.64Z"/><path class="cls-1" d="M19.57,37.67l0-2.59a13.53,13.53,0,0,1-.78,1.48l-1.11-.31a14.83,14.83,0,0,0,2.68-6.08c.1,0,1.46.18,1.46.45,0,.11-.17.2-.38.2h-.1a21.85,21.85,0,0,1-.9,2.51h.18c.21,0,.31.1.31.18s-.14.21-.38.28c0,.34,0,.67,0,.67v8.19h-1Zm2,4a9.59,9.59,0,0,0,1.09.11c.46,0,.73-.13.73-.49v-1c-.59.1-1.16.17-1.62.22,0,.28-.11.39-.21.39s-.13-.07-.17-.15S21,39.7,21,39.7a22,22,0,0,0,2.37-.18v-1H21.1v-.85h2.3V37c-.5.07-1,.11-1.6.14l-.62-.78h.21a9.45,9.45,0,0,0,3.71-.57s.63.63.63.83a.11.11,0,0,1-.13.1.41.41,0,0,1-.28-.15,9.84,9.84,0,0,1-1,.29v.88h2c0-.07-.11-1.3-.21-1.81,0,0,.9.06,1.08.08s.25.08.25.17-.08.14-.34.2a12.49,12.49,0,0,0,.1,1.36h3.46v.85H29l.78.56a.17.17,0,0,1,.07.13c0,.08-.08.15-.22.15a.49.49,0,0,1-.18,0c-.35.39-.7.84-1.16,1.3a2.27,2.27,0,0,0,1.29.84c.56,0,.48-1.16.49-1.47l.91,1c-.17,1-.7,1.58-1.33,1.58a3.39,3.39,0,0,1-2-1.33,7.79,7.79,0,0,1-2.31,1.27l-.91-.67a7,7,0,0,0,2.76-1.32,6.89,6.89,0,0,1-.67-2H24.31v.84c.87-.13,1.54-.27,1.78-.32v.8c-.39.1-1.05.22-1.78.35v.42c0,.17,0,.67,0,.74,0,1-.8,1.26-1.72,1.26l-.52,0Zm-.34-6.93h4.08V34H22.09v-.83h3.22v-.73H21.73V31.6h2.33a4.38,4.38,0,0,0-.76-1.18l.84-.32A6.48,6.48,0,0,1,25,31.6h1.71a8.3,8.3,0,0,0,.91-1.51l1.13.36c.11,0,.18.11.18.18s-.13.18-.46.2l-.73.77h2.54v.83H26.2v.73h3.46V34H26.2v.76h4.36v.84H21.24Zm6.08,3.78a5.91,5.91,0,0,0,.48,1.39,6.8,6.8,0,0,0,1.05-1.39ZM28,36a6.43,6.43,0,0,1,1.69.87l-.48.7a4.57,4.57,0,0,0-1.68-1Z"/><path class="cls-1" d="M35.38,35.57a13.91,13.91,0,0,0,6.36-5.41s.62.14,1.13.31a.22.22,0,0,1,.18.18c0,.08-.11.17-.42.17h0v0a13,13,0,0,0,6.18,4.31l-1.29.91a11.72,11.72,0,0,1-2.34-1.4v.78h-6v-.84a14.48,14.48,0,0,1-2.56,1.67ZM36.64,37H47.48v1h-6c-.15.42-.69,1.72-1.15,2.72,1.67-.18,3.31-.41,4.33-.59-.43-.39-.91-.77-1.43-1.16,0,0,.5-.42.8-.64a18.92,18.92,0,0,1,3.54,3.36l-.85.94a10.45,10.45,0,0,0-1.2-1.61c-.5.07-5.28.83-8.17,1.09v.11c0,.24-.08.42-.21.42s-.18-.1-.27-.32c-.18-.48-.42-1.33-.42-1.33.78,0,1.71-.07,2.69-.15a24.17,24.17,0,0,0,1.09-2.83h-3.6Zm8.15-2.61A17.89,17.89,0,0,1,42,31.66a17.54,17.54,0,0,1-2.65,2.77Z"/><path class="cls-1" d="M55.76,40l0-2.61a11.67,11.67,0,0,1-1.67,1.39L53,38.18a9.82,9.82,0,0,0,4.43-4.82l-3.82.07v-.91h2.14V31.28s0-.53,0-1.05c0,0,1,.07,1.29.13.14,0,.21.1.21.17s-.11.2-.38.25a4.62,4.62,0,0,0,0,.49V32.5h1c.08,0,.17-.1.25-.1s.8.48.8.66-.13.14-.31.18A14.54,14.54,0,0,1,57,35.94a12.72,12.72,0,0,0,2.69,1.89l-1,.71a15.11,15.11,0,0,1-1.91-1.65l0,3v2.87H55.76Zm2.48,1.19h3.21V35.86H58.73V34.79h2.72V31.54s0-.8,0-1.13c0,0,1.08,0,1.37.08s.24.1.24.17-.13.2-.39.25c0,.24,0,.64,0,.64v3.24h3.11v1.06H62.6V41.2h3.5v1.08H58.24Z"/><path class="cls-1" d="M73,31.73s0-.76,0-1c.29,0,1,.07,1.3.11.13,0,.22.08.22.18s-.1.18-.38.24c0,.13,0,.41,0,.63v2.7h3.11v1.05H74.1v5c1.39-.45,2.6-.92,3.22-1.19v1.05c-1.05.45-3.84,1.46-5.2,1.83a.64.64,0,0,1,0,.15c0,.18-.07.31-.17.31s-.11,0-.17-.14a12.7,12.7,0,0,1-.62-1.23c.6-.13,1.22-.28,1.83-.46Zm5-.06s0-.74,0-1a12.54,12.54,0,0,1,1.3.11c.14,0,.24.1.24.18s-.11.18-.38.24c0,.11,0,.38,0,.57v3.38a10.8,10.8,0,0,0,3.1-2.42l.87,1a.32.32,0,0,1,.1.22c0,.08,0,.14-.17.14a.79.79,0,0,1-.32-.1,26.32,26.32,0,0,1-3.57,2.41v4.17c.06.71.66.73,1.51.73,1.29,0,1.78-.25,1.79-2.94l1.11,1c-.34,2.8-1.12,3-2.94,3a9.86,9.86,0,0,1-1.23-.06A1.45,1.45,0,0,1,78,40.78Z"/><path class="cls-1" d="M88.89,39.56h2.34V38.11h-1v.66h-.81V33.39h1.85v-1H89V31.6h2.27v-.36s0-.74,0-1.05c0,0,.88,0,1.18.1.14,0,.24.1.24.18s-.13.18-.41.22c0,.11,0,.59,0,.59v.32h2.21v.84H92.16v1h1.91v5.27h-.85v-.55H92.16v1.44h2.28v.85H92.16v2.3h-.94v-2.3H88.89Zm2.37-4.22V34.18H90.19v1.16Zm0,2V36.1H90.19v1.25Zm2-2V34.18H92.14v1.16Zm0,2V36.1H92.14v1.25ZM93,41.83A7.33,7.33,0,0,0,97.21,39a14.46,14.46,0,0,1-1.3-2.91l.92-.46a10.4,10.4,0,0,0,1,2.49,9.42,9.42,0,0,0,1-2.54,10.06,10.06,0,0,1,1.09.49c.1.06.14.11.14.18s-.11.17-.31.17H99.6A11.45,11.45,0,0,1,98.34,39a7.92,7.92,0,0,0,3.42,2.7l-1,.77a8,8,0,0,1-3-2.66,9,9,0,0,1-3.61,2.82ZM94.27,36a6.89,6.89,0,0,0,2.17-2.89l.91.41c.15.08.24.17.24.24s-.11.15-.29.15h-.17a10.57,10.57,0,0,1-1.95,2.63Zm.59-4.09h2.41v-.5s0-.81,0-1.12c0,0,1,0,1.23.08s.24.1.24.17-.13.2-.39.25c0,.15,0,.6,0,.6v.52h2.89v.92h-6.3Zm4.23,1.25a8.33,8.33,0,0,0,2.48,2.56l-.92.67a11.49,11.49,0,0,1-2.35-2.79Z"/><path class="cls-1" d="M116.58,41.46a12.52,12.52,0,0,1-3.18.41c-2,0-4.48-.53-4.48-2.65,0-1.53,1.34-2.52,2.83-3.17a4.08,4.08,0,0,1-.41-1.92c0-.42.06-1,.06-1.72v-.35q0-.55,0-1.22v-.06c0-.06,0-.07.07-.07.24,0,1.15.17,1.36.21s.24.08.24.17-.1.15-.36.24c-.07,1.06-.15,2.27-.15,2.58v.2a3.33,3.33,0,0,0,.28,1.54c.49-.15,1-.29,1.4-.41.64-.17,1.3-.29,1.83-.45h0a.09.09,0,0,1,.1.1v1.23c-2,.06-6.15,1-6.15,3,0,1.05,1.19,1.57,3,1.57a12.24,12.24,0,0,0,3.84-.67Z"/><path class="cls-1" d="M128,35.86a16.47,16.47,0,0,1,2.34,1.74,16.46,16.46,0,0,0,3.46-3.4l-8.68,0V33.09c8.81,0,9.37,0,9.44,0s.17-.08.24-.08,1,.71,1,.9-.14.22-.38.27a23.48,23.48,0,0,1-4.19,4.24,10.43,10.43,0,0,1,1.54,1.86l-1.05.91a14.82,14.82,0,0,0-4.58-4.68Z"/><path class="cls-1" d="M145.42,38.34a8.09,8.09,0,0,0-1.23-2.87l.94-.39a10.42,10.42,0,0,1,1.27,2.73Zm-.22,3.08a7.19,7.19,0,0,0,5.27-6.75s.71.11,1.16.22c.1,0,.22.08.22.21s-.21.21-.35.24a8.37,8.37,0,0,1-5.24,6.92Zm2.45-3.7a9.27,9.27,0,0,0-1-3l1-.31a10.46,10.46,0,0,1,1.11,2.82Z"/><path class="cls-1" d="M160.66,40.89c3.57-.63,4.55-2.58,4.72-4.58h-5.06V35.19h5.08c0-.53,0-1.43,0-1.79v-.28c-1.26.11-2.51.17-3.67.2L161,32.2h1.08a22.41,22.41,0,0,0,6.7-.84,12,12,0,0,1,.78,1.05.32.32,0,0,1,0,.14c0,.08-.06.13-.15.13a.56.56,0,0,1-.38-.18,21.23,21.23,0,0,1-2.49.46c0,.74,0,1.65,0,2.21h4.33v1.12h-4.33c-.14,2.72-1.65,4.75-4.76,5.58Z"/><path class="cls-1" d="M179.4,32.19a8.7,8.7,0,0,1,3.14,2.44l-1,1a8.34,8.34,0,0,0-3-2.73Zm9.23,3.07a18,18,0,0,1-8.5,6c-.06.24-.13.36-.22.36s-1.12-1.09-1.25-1.3a.11.11,0,0,1,0-.07s0-.06.1-.07c3.89-.55,7.4-3.45,9.4-6.32Z"/><path class="cls-1" d="M195.79,41c4.06-1.26,6.28-3.73,8-7.31l-3.45,0a14.54,14.54,0,0,1-3.59,3.4l-1.19-.64a11.94,11.94,0,0,0,5-5.38c1.23.29,1.53.39,1.53.53s-.18.15-.35.15h-.08c-.18.32-.38.64-.57.94,1.37,0,3.24,0,3.31,0s.17-.14.28-.14,1,.66,1,.83-.14.18-.34.22c-2,3.88-4.08,6.79-8.26,8.29Zm8.85-10.53a8.33,8.33,0,0,1,1.71,1.5l-.7.64A6.6,6.6,0,0,0,204,31Zm1.39-.78A7.38,7.38,0,0,1,207.71,31l-.69.67a6.26,6.26,0,0,0-1.64-1.46Z"/><path class="cls-1" d="M213.58,37.68a.07.07,0,0,1-.06-.07.05.05,0,0,1,0,0c.36-.41.81-.87,1.11-1.27a23.37,23.37,0,0,0,1.75-2.79c-.17,0-.63.06-.9.06a2.51,2.51,0,0,1-1.43-.35l-.13-1.11v0a0,0,0,0,1,0,0h.07a3.32,3.32,0,0,0,1.61.52h0c.31,0,.67,0,1.11-.07a11.52,11.52,0,0,0,.6-1.82c.18,0,1.47.17,1.47.43,0,.11-.18.21-.49.22-.11.31-.28.67-.43,1a26.74,26.74,0,0,0,2.7-.6l0,1.06c-1.18.25-2.24.43-3.12.56a16.92,16.92,0,0,1-1.4,2.07s0,0,0,0l.06,0a3.21,3.21,0,0,1,2.12-.8,1.64,1.64,0,0,1,1.57,1.43c.45-.21.92-.41,1.4-.59.69-.29,1.41-.55,1.93-.76l.78,1s0,0,0,.06,0,.06-.07.07a17.74,17.74,0,0,0-4,1.25c0,.62-.07,1.93-.1,2.4l-1.11.1c0-.39.07-1.33.1-1.95l-.34.2c-1,.6-1.69,1.22-1.69,1.86,0,1.22,1.95,1.25,2.27,1.25a13.36,13.36,0,0,0,3.18-.53l-.21,1.3a12.58,12.58,0,0,1-2.84.36c-2.52,0-3.45-1.19-3.45-2.31,0-1.43,1.72-2.51,3.1-3.24-.06-.73-.31-1.09-1-1.09-1,0-2.54,1.63-3.11,2.55Z"/><path class="cls-1" d="M235,41.32c3.8-.22,5.41-1.92,5.42-3.74a2.32,2.32,0,0,0-1.92-2.24,14,14,0,0,1-2.8,3.91,4.28,4.28,0,0,0,.39.76l-1.06.34-.17-.32a4.28,4.28,0,0,1-2.45,1.33,1.54,1.54,0,0,1-1.4-1.72c0-1.72,1.93-3.5,3.36-4.36,0-.56.1-1.15.15-1.74-.49,0-.77.07-1.09.07a3.34,3.34,0,0,1-1.62-.34s0-.94,0-1.06v0c0-.07,0-.1.06-.1s0,0,.07,0a3.68,3.68,0,0,0,1.79.46c.22,0,.41,0,.85-.06,0-.49.06-1,.06-1.48V30.7s.85,0,1.25.08c.18,0,.25.1.25.17s-.14.22-.38.27c0,.29-.07.69-.13,1.16a24.89,24.89,0,0,0,4-1l.1,1.11a42.35,42.35,0,0,1-4.24.94c-.06.48-.11,1-.15,1.47a7.06,7.06,0,0,1,2.38-.5s0-.07,0-.11a3.87,3.87,0,0,0,.1-.78c.83.11,1.39.25,1.39.42s-.1.14-.29.15c0,.15-.08.31-.14.46a3.27,3.27,0,0,1,2.75,3.15c0,2.51-2.27,4.23-5.5,4.64Zm-.71-4.27c0-.24,0-.46,0-.7-1,.73-2.24,2.12-2.24,3.12,0,.77.41.78.5.78a4.8,4.8,0,0,0,2-1.22A7.32,7.32,0,0,1,234.28,37.05Zm3-1.81a5.94,5.94,0,0,0-2,.59c0,.49,0,.94,0,1.3a4.87,4.87,0,0,0,.1,1.08,11.73,11.73,0,0,0,2.09-3Z"/><path class="cls-1" d="M248.77,39.33a34.55,34.55,0,0,0,3.1-5.87l-.52.1a5.34,5.34,0,0,1-1,.1,3.07,3.07,0,0,1-1.2-.22l-.21-1.05v0s0-.06.06-.06h0a4.24,4.24,0,0,0,1.67.39,6.72,6.72,0,0,0,1.46-.21,7.89,7.89,0,0,0,.29-1.95c1.43.13,1.56.17,1.56.34s-.14.18-.41.22c-.07.34-.15.73-.25,1.09.6-.18,1.22-.36,1.68-.55l.06,1.05c-.59.17-1.3.35-2,.52A57,57,0,0,1,250,39.59Zm9.81,2.12a9.54,9.54,0,0,0-2.09-1.56,2.4,2.4,0,0,1-2.54,1.93c-1.34,0-2.47-.87-2.47-1.75s.87-1.62,2.58-1.62a7.3,7.3,0,0,1,1.42.15c0-.7-.08-1.54-.08-2.26a6.59,6.59,0,0,1,.06-1s.78.06,1.12.13.28.11.28.2-.13.18-.38.22a6,6,0,0,0-.1,1.12c0,.63.07,1.26.1,1.83a11.57,11.57,0,0,1,3.05,1.81ZM254,39.33c-.88,0-1.56.27-1.56.73s.84.8,1.47.8a1.46,1.46,0,0,0,1.55-1.27A4.16,4.16,0,0,0,254,39.33Zm1.54-6.19h.7c1.19,0,2.61.15,3.11.71l-.35.94s0,.07-.06.07,0,0-.06,0a4.32,4.32,0,0,0-2.82-.74h-.59c-.1,0-.11,0-.11,0v0Z"/><path class="cls-1" d="M266.25,41.62c.9-2.13,2.42-6.12,2.9-7.82a10.21,10.21,0,0,1-1.47.14,3.24,3.24,0,0,1-1.15-.18l-.17-1.09v0s0-.06,0-.06h0a4.44,4.44,0,0,0,1.62.34,5.8,5.8,0,0,0,.8-.07l.5-.08a12.44,12.44,0,0,0,.22-2s.8.06,1.25.13c.24,0,.35.13.35.21s-.15.21-.41.25c-.07.39-.15.83-.24,1.22.62-.15,1.27-.32,1.85-.5v1.13l-2.07.42c-.42,1.61-2,5.81-2.73,8.15Zm6.09-2.82a.94.94,0,0,0-.24.56c0,.71,1.36,1.11,2.65,1.11a7.44,7.44,0,0,0,2.16-.34l-.38,1.32a8.35,8.35,0,0,1-1.61.15c-2.27,0-3.89-1-3.89-2.09a1.53,1.53,0,0,1,.29-.87Zm.21-4.5a14.37,14.37,0,0,1,1.77-.1,5.93,5.93,0,0,1,2.51.38l-.34,1.13a5.5,5.5,0,0,0-2.56-.49,10.68,10.68,0,0,0-1.53.11Z"/><path class="cls-1" d="M284.86,41.83a7.07,7.07,0,0,1-.66-3.19c0-.27,0-.53,0-.78.15-2.73.8-4.55.9-6.35,0-.07,0-.08.06-.08s1.27.34,1.3.35.21.13.21.2-.11.15-.41.17a49.45,49.45,0,0,0-1.11,5.34,5,5,0,0,0,0,.69c0,.13,0,.57.08.57s1.08-2.47,1.16-2.69c0,0,.22.57.43,1-.27.76-.71,1.78-.9,2.56a4.62,4.62,0,0,0-.15,1.23,3.59,3.59,0,0,0,.06.66v0a.07.07,0,0,1-.06.07Zm4.29-3.39c-.38.43-.39.48-.39.59,0,.46,1,1,2.51,1a8,8,0,0,0,2.89-.57L294,40.72a9.6,9.6,0,0,1-2.65.41c-2.23,0-3.63-1-3.63-2a1.33,1.33,0,0,1,.53-1Zm-.9-5.48a6.28,6.28,0,0,0,2,.27,15.45,15.45,0,0,0,3.22-.36V34a16.64,16.64,0,0,1-3,.27,7.49,7.49,0,0,1-2.3-.28Z"/><path class="cls-1" d="M2.61,8.05a6.54,6.54,0,0,1-1.29,1s0,0-.06,0A9.85,9.85,0,0,0,0,7.91,8.83,8.83,0,0,0,3.94,3.75l-3.1,0V2.37H2.62V.94a5.74,5.74,0,0,0,0-.81S4.15.18,4.43.24s.22.08.22.15-.13.2-.39.25c0,.22,0,.63,0,.63V2.34h.63c.06,0,.13-.08.2-.08s1.06.7,1.06.9-.14.14-.29.18A15,15,0,0,1,4.34,6c.13.11.28.22.43.35a7.38,7.38,0,0,0,1.06-1.6s.87.48,1.29.73a.21.21,0,0,1,.13.17c0,.08-.08.14-.25.14a.77.77,0,0,1-.24,0A14.19,14.19,0,0,1,5.71,7c.39.27.78.52,1.09.7A8.94,8.94,0,0,0,5.67,8.8l0,0-.06,0C5.14,8.43,4.64,8,4.19,7.56v4.23c3.28-1.5,3.56-5.34,3.56-8.45V2.69H5.87V1.19h6.77v.28c0,.78,0,1.86,0,3a30.92,30.92,0,0,1-.38,5.9,2.59,2.59,0,0,1-2.72,2.21,5.84,5.84,0,0,1-.69-.06s-.07,0-.08-.06a9.84,9.84,0,0,0-1-1.67,5.22,5.22,0,0,1-2.1,2l-.06,0a9,9,0,0,0-1.47-.85v1H2.56ZM9.44,2.69c0,2.44-.14,5.67-1.53,8a6.15,6.15,0,0,0,1.34.21C10.93,10.9,11,9.55,11,2.69Z"/><path class="cls-1" d="M23,10a3.53,3.53,0,0,1-2.21,1.34c-1.12,0-1.93-1.22-1.93-2.69a5.46,5.46,0,0,1,2-3.91,22.63,22.63,0,0,1-.35-2.59L22,1.4l.11,0c.06,0,.08,0,.08.14v.39c0,.64,0,1.26.08,1.86A7.15,7.15,0,0,1,24.83,3,12.15,12.15,0,0,0,25.06.91s1.47.25,1.95.39c.2.06.29.13.29.2s-.15.18-.45.22c-.07.45-.17.88-.27,1.32a4.12,4.12,0,0,1,3.46,4.23c0,3.31-3.15,4.76-5.41,5.07-.08,0-.14,0-.17-.08A7.45,7.45,0,0,0,23,10.77c3-.22,5.32-1.29,5.32-3.53a2.68,2.68,0,0,0-2.1-2.76A15.85,15.85,0,0,1,24.07,8.7c.18.22.36.43.56.64l-1.6.77ZM21.23,6.49a3.54,3.54,0,0,0-.9,2.13c0,.92.43,1.06.53,1.06.25,0,.53-.24,1.22-1A12,12,0,0,1,21.23,6.49Zm3.24-2a5.65,5.65,0,0,0-2,.9,9.28,9.28,0,0,0,.66,1.88A13,13,0,0,0,24.46,4.45Z"/><path class="cls-1" d="M36.25,3.05a.59.59,0,0,1-.07-.17c0-.06.06-.07.18-.07,2.35,0,6.19-1.13,10.18-1.51a.29.29,0,0,0,.15-.06.42.42,0,0,1,.15-.06,5,5,0,0,1,.8,1.74c0,.08,0,.13-.11.13A.85.85,0,0,1,47.31,3a6.37,6.37,0,0,0-2,.38c-1.22.46-3.56,2.48-3.56,4.27,0,2.07,2.4,2.56,4.73,2.63a15.53,15.53,0,0,0-1.36,1.81.1.1,0,0,1-.08.06h0c-.39-.06-5-.78-5-4.29a6,6,0,0,1,2.58-4.47c-1.89.32-3.88,1.05-5.56,1.3Z"/><path class="cls-1" d="M53.89,3.05a.59.59,0,0,1-.07-.17c0-.06.06-.07.18-.07,2.35,0,6.19-1.13,10.18-1.51a.29.29,0,0,0,.15-.06.42.42,0,0,1,.15-.06,5,5,0,0,1,.8,1.74c0,.08,0,.13-.11.13A.85.85,0,0,1,65,3a6.37,6.37,0,0,0-2,.38c-1.22.46-3.56,2.48-3.56,4.27,0,2.07,2.4,2.56,4.73,2.63a15.53,15.53,0,0,0-1.36,1.81.1.1,0,0,1-.08.06h0c-.39-.06-5-.78-5-4.29a6,6,0,0,1,2.58-4.47c-1.89.32-3.88,1.05-5.56,1.3Zm9.68,1a6.35,6.35,0,0,1,1.36,1.86l-1.05.56a6.53,6.53,0,0,0-1.29-2Zm1.6-.64a6.84,6.84,0,0,1,1.36,1.72l-1,.59A6.26,6.26,0,0,0,64.2,3.91Z"/><path class="cls-1" d="M74.92,9h-.28c-1.13,0-2-.6-2-1.37a1.79,1.79,0,0,1,.78-1.32l1.29.35c-.29.21-.5.41-.5.56s.18.27.66.27H75c0-.71.1-1.4.17-2h-.49a5.16,5.16,0,0,1-1.93-.36s0-1.43,0-1.53,0-.18.1-.18l.13,0a5.33,5.33,0,0,0,1.85.49h.52c.1-1.05.18-2,.18-2.8,0-.21,0-.41,0-.59s0-.07,0-.1,0-.07.1-.07S77,.57,77.45.7c.17,0,.24.1.24.15s-.18.18-.36.2c-.08.74-.21,1.61-.35,2.56.43-.11.87-.25,1.3-.41l0,1.54c0,.06,0,.08-.07.1-.43.14-.91.27-1.42.38-.07.64-.14,1.32-.18,2a13,13,0,0,0,2-.88V7c0,.36,0,.78,0,1V8c0,.2-1.44.66-2.14.81v.43c0,1.2.64,1.68,1.44,1.68A2.65,2.65,0,0,0,80.46,8.5c0-1.16-1-2.4-2.37-3.54a13.58,13.58,0,0,0,2-.39h.07a5.78,5.78,0,0,1,2.12,3.91A4.28,4.28,0,0,1,78,12.62,3,3,0,0,1,74.9,9.37V9Z"/><path class="cls-1" d="M90.74,8.43a.48.48,0,0,1-.31.14c-.14,1.47-.5,3.66-.71,3.66h-.06a9.42,9.42,0,0,0-1.27-.11A12,12,0,0,0,89.29,8s.91.1,1.29.2a.21.21,0,0,1,.15.11V7.23l-1.43.2c0,.17-.1.35-.2.35s-.13-.07-.2-.28c-.15-.49-.32-1.41-.32-1.41.35,0,.74,0,1.12,0,.21-.31.43-.62.64-.94a10.64,10.64,0,0,0-1.72-1.82l.71-1.09.38.32A13.1,13.1,0,0,0,90.79,0a13.22,13.22,0,0,1,1.46.67.19.19,0,0,1,.1.15c0,.07-.06.14-.22.14H92c-.07.14-.83,1.69-1.34,2.48.17.18.31.35.43.5a20.63,20.63,0,0,0,1.32-2.55s1,.53,1.32.78a.24.24,0,0,1,.11.17c0,.08-.07.15-.22.15h-.11c-.06.1-.63,1.05-1.32,2.12L93,4.27a11.18,11.18,0,0,1,1.11,2.59V2.55h2.63V.92a7.69,7.69,0,0,0,0-.78s1.26,0,1.71.1c.14,0,.21.07.21.14s-.14.21-.41.25c0,.14,0,.36,0,.41V2.55H101V9c0,1,0,1.69,0,1.9v.11c0,1.53-1.33,1.71-2.44,1.71h-.28c-.13,0-.13,0-.15-.11a7.43,7.43,0,0,0-.85-1.53,9,9,0,0,0,1.26.14c.66,0,.91-.21.91-.66V8.8a2.94,2.94,0,0,0-.66.29.18.18,0,0,1-.1,0s-.06,0-.08-.07a10.4,10.4,0,0,1-1.12-3.31,8.94,8.94,0,0,1-1.15,3.4s-.06.07-.1.07l-.07,0A2.55,2.55,0,0,0,95.6,9v3.92H94.11V7.16l-1,.5q-.06-.36-.17-.8c-.21,0-.49.1-.8.14l0,5.87H90.71Zm1.81-2.72a5.31,5.31,0,0,0-.48-1c-.25.39-.5.78-.76,1.15C91.8,5.83,92.23,5.76,92.54,5.72Zm.32,5.87a15.6,15.6,0,0,0-.66-3.49l1-.29A19.05,19.05,0,0,1,94,11ZM95.55,7.9a10,10,0,0,0,1.16-4H95.55Zm2.69-4A8.61,8.61,0,0,0,99.46,7.7c0-1.82,0-3.75,0-3.75Z"/><path class="cls-1" d="M108,7.77c-.67.67-.78.71-.83.71a.1.1,0,0,1-.08-.06,6.42,6.42,0,0,0-1.25-1.06,10.57,10.57,0,0,0,3.71-4.31s1.13.62,1.47.83l.15.11V.55h6.56V5.46h-1.53V5.15H112.7v.36h-1.48V4.23a.53.53,0,0,1-.17,0l-.25,0A15.13,15.13,0,0,1,109.61,6h.11c.22,0,.31.1.31.17s-.15.21-.41.29c0,.06,0,.57,0,.57V12.9H108Zm2.69-7c.15.08.22.17.22.24s-.13.15-.31.15h-.18a12.29,12.29,0,0,1-3.18,3.5s0,0-.07,0a6.33,6.33,0,0,0-1.29-1A8.43,8.43,0,0,0,109.23,0S110.24.48,110.73.76Zm-.6,7.14h5.32V7.19h-5.07V5.9h8.38V7.19h-1.7V7.9H119V9.2h-1.95v.6c0,.64,0,1.13,0,1.22v0c0,1.39-1,1.81-2.48,1.81h-.45c-.11,0-.14,0-.15-.11a4.9,4.9,0,0,0-.77-1.32l-.21.27A8.78,8.78,0,0,0,111,10l.71-.8h-1.54Zm3.21,3.38a7.19,7.19,0,0,0,1.16.13c.56,0,1-.14,1-.62V9.2h-3.21A11.29,11.29,0,0,1,114,10.45Zm2.91-9V1.67H112.7v.64Zm0,1.71V3.35H112.7V4Z"/><path class="cls-1" d="M134.39,6.4a3.43,3.43,0,0,0-3-3.39,3.3,3.3,0,0,1,.06.66,11.3,11.3,0,0,1-2.86,6.47A2.21,2.21,0,0,1,127,11c-1,0-2.63-1.34-2.63-3.53a6.43,6.43,0,0,1,6.5-6,5.08,5.08,0,0,1,5.42,5c0,4.57-5.15,5.8-5.57,5.8a.11.11,0,0,1-.1-.06,11.23,11.23,0,0,0-1.74-1.55C131.24,10.52,134.39,9.43,134.39,6.4Zm-8.35,1C126,8.46,126.7,9,127,9a.62.62,0,0,0,.46-.25,9.23,9.23,0,0,0,2.2-5.11,2.8,2.8,0,0,0,0-.49A5.05,5.05,0,0,0,126,7.41Z"/><path class="cls-1" d="M148.73,8.92a.12.12,0,0,1,0,.08s0,0,0,.06c-.84,1.78-1.67,2.58-2.59,2.58a2.48,2.48,0,0,1-1.22-.39c-1.89-1.11-2.4-3.1-2.4-6.08,0-.57,0-1.36,0-2,0-.18,0-.35,0-.5s0-.11.06-.11,2.26.17,2.26.42c0,.08-.14.18-.39.22,0,.41-.18,2.07-.18,3.1,0,1.27.21,2.54,1.37,3.19a.75.75,0,0,0,.38.13c.46,0,.84-.66,1.5-2.55A11.72,11.72,0,0,0,148.73,8.92Zm3.61.78s0,0-.07,0,0,0,0-.13,0-.18,0-.28a9.31,9.31,0,0,0-3-6.32l1.72-.55a9.57,9.57,0,0,1,3.18,6.25v.17Z"/><path class="cls-1" d="M167.33,12.63l-.07,0s0,0-.06-.06a25.89,25.89,0,0,0-4.68-5.1A2,2,0,0,1,161.77,6a2.17,2.17,0,0,1,.81-1.57C164,3.14,166.1,1.83,167.26.38c0,0,.06-.06.08-.06A7.58,7.58,0,0,1,169.17,2c0,.08-.06.11-.15.11a.74.74,0,0,1-.31-.07c-1.12.9-3.28,2.24-4.45,3.24-.32.28-.49.52-.49.76s.18.52.59.84a26.69,26.69,0,0,1,5,4.94Z"/><path class="cls-1" d="M177.16,9.22h3.42c0-.43,0-.91,0-.91s1.3,0,1.69.08c.13,0,.2.07.2.14s-.11.18-.36.24v.45h2.26a5.63,5.63,0,0,0,0-.74s1.48,0,1.78.1c.14,0,.21.07.21.14s-.13.15-.38.21a2.28,2.28,0,0,0,0,.29h3.49v1.33h-3.49V12.9h-1.54V10.55H182c-.27,1.33-1.29,2.24-3.8,2.52-.11,0-.14,0-.14,0a9.27,9.27,0,0,0-1.42-1.29c2.62,0,3.52-.5,3.81-1.19h-3.29ZM180,5.85s.48.25,1,.55a2.94,2.94,0,0,0,.69-.77h-1.79a6.1,6.1,0,0,1-1.76,1,.06.06,0,0,1-.06,0,7.5,7.5,0,0,0-1.22-.78,8.1,8.1,0,0,0,3-1.6h-2.54V3h12v1.2h-4.15c0,.31,0,.69,0,1.05a13.75,13.75,0,0,0,2.91-1s.66.78.91,1.13a.23.23,0,0,1,.06.14c0,.07-.06.11-.14.11a.59.59,0,0,1-.34-.14l-.41.13a7.46,7.46,0,0,0,1.22.78s.07,0,.07.07,0,0,0,.06c-.27,1.67-1.22,1.79-3,1.79s-2.82-.22-2.82-1.34c0-.21,0-.94,0-1.68a.71.71,0,0,1-.27.1c-1.37,2.84-4.94,3.38-5.23,3.38a.09.09,0,0,1-.08-.06,7.35,7.35,0,0,0-1.08-1,8.6,8.6,0,0,0,3-.7,6.81,6.81,0,0,0-.87-.52ZM177,.92h3.57V.77s0-.35,0-.76c0,0,1.32,0,1.77.1.15,0,.22.08.22.15s-.13.2-.41.25a2.36,2.36,0,0,0,0,.41h2.28V.77s0-.35,0-.76c0,0,1.32,0,1.76.1.15,0,.22.08.22.15s-.13.2-.41.25a2.36,2.36,0,0,0,0,.41h3.59V2.26h-3.59V2.7h-1.51V2.26H182V2.7h-1.51V2.26H177Zm5.58,3.77c.08,0,.13-.08.2-.08a3.38,3.38,0,0,1,.78.52s0,0,.06.06v-1h-2.21c-.1.11-.24.28-.42.46Zm2.51,2c0,.41.27.45,1.26.45,1.29,0,1.55-.06,1.64-1.48-.81.25-1.82.53-2.9.76Z"/><path class="cls-1" d="M195.73,9.08l.1-2.93a5.42,5.42,0,0,1-.48.83.07.07,0,0,1-.06,0,8.17,8.17,0,0,0-1.27-1A14.51,14.51,0,0,0,196.52,0c.25,0,1.54.36,1.71.42s.24.14.24.2-.21.2-.41.2H198c-.22.71-.52,1.61-.9,2.56h.31c.21,0,.31.1.31.17s-.13.18-.35.24c0,.32,0,1,0,1l0,8.07h-1.62Zm3.92,1.48-1.32.18v0c0,.25-.07.36-.17.36s-.14-.07-.2-.18a13.81,13.81,0,0,1-.48-1.41c.64,0,1.42-.07,2.16-.14V8.68h-2V7.55h2V7.06l-1.32.07c-.06,0-.08,0-.11-.06a7.48,7.48,0,0,0-.69-.91h.81a10.76,10.76,0,0,0,3.17-.35,5.5,5.5,0,0,1,.78.92c0,.07-.06.11-.14.11a.63.63,0,0,1-.32-.13c-.24.06-.49.11-.77.15v.64h1.54c0-.18-.06-.38-.07-.59a9.14,9.14,0,0,0-.14-1.06s1.47.07,1.68.1.24.07.24.15-.1.14-.35.2c0,.21,0,.84.08,1.2h1.48a5.24,5.24,0,0,0-1.32-1l.85-.6a9,9,0,0,1,1.46,1l-.74.59h1.33V8.66h-1.78c1.06.56,1.16.64,1.16.73s-.08.11-.25.11h-.18a11.24,11.24,0,0,1-1,1.23s.48.55.76.55c.45,0,.43-1.21.45-1.53a10.51,10.51,0,0,0,1.16,1.09s.06,0,.06.08c0,.38-.5,1.82-1.65,1.82A2.62,2.62,0,0,1,204,11.64a8.22,8.22,0,0,1-1.82,1h-.06a.08.08,0,0,1-.07,0,4.78,4.78,0,0,0-1-.8c-.17.78-1,1-1.88,1h-.39c-.06,0-.1,0-.11-.07a7.12,7.12,0,0,0-.83-1.3,9.74,9.74,0,0,0,1.19.14c.35,0,.6-.1.6-.41Zm-1.89-6h3.77V4h-3V3h3V2.48h-3.4V1.34h2a7.49,7.49,0,0,0-.6-1L201,0a13.38,13.38,0,0,1,.69,1.3H203A9.48,9.48,0,0,0,203.58,0s1.48.25,1.75.35c.11,0,.18.11.18.18s-.11.15-.39.15h0s-.22.32-.43.64h2.19V2.48h-3.77V3h3.21V4h-3.21v.55h4V5.69h-9.32Zm3.33,7a7.48,7.48,0,0,0,2.26-1,9.61,9.61,0,0,1-.56-1.89h-1.72v.56c.63-.08,1.13-.18,1.36-.24,0,0,0,.34,0,.63a2.44,2.44,0,0,0,0,.35v0c0,.06,0,.07-1.36.31v.24c0,.32,0,.64,0,.81Zm3.11-2.9q.13.55.25,1a4.7,4.7,0,0,0,.73-1Z"/><path class="cls-1" d="M213.95,12.38a7.93,7.93,0,0,1-.8-3.7V8.54c.06-3.19.87-5.84.92-7.41,0-.07,0-.11.06-.11s1.88.53,1.89.53.24.13.24.2-.13.17-.41.18a37.15,37.15,0,0,0-1.18,5.77c0,.31,0,.5,0,.5a14.79,14.79,0,0,0,1.06-2.58,10.7,10.7,0,0,0,.62,1.58c-.88,2.41-1.05,3-1.05,4a5.32,5.32,0,0,0,.06.77v0a.11.11,0,0,1-.08.11Zm5.27-4.12a3.87,3.87,0,0,0-.45.56.52.52,0,0,0-.07.24c0,.46.85.8,2.33.8h.08A8.78,8.78,0,0,0,224,9.29s-.21,1.34-.22,1.88a.09.09,0,0,1-.06.07,12.69,12.69,0,0,1-2.73.39c-2.45,0-4-1-4-2.26a2.24,2.24,0,0,1,.81-1.51Zm-1.55-5.65a8.84,8.84,0,0,0,2.33.27,20.77,20.77,0,0,0,3.38-.32V4.26s0,.07-.06.07a18.39,18.39,0,0,1-3,.25,10.07,10.07,0,0,1-2.72-.31Z"/><path class="cls-1" d="M241.76,9.19a.54.54,0,0,1,0,.08c0,.14-2.73,3.12-6,3.12s-3.43-2.73-3.43-4c0-1.91.25-4,.25-6.08,0-.42,0-.84,0-1.26.55,0,1.79.13,2.19.2.2,0,.28.11.28.2s-.17.25-.48.31c-.1,2.31-.45,4.89-.45,6.63,0,1.08.2,2.21,1.72,2.21,2,0,4.12-1.86,5.25-3.5A11.67,11.67,0,0,0,241.76,9.19Z"/><path class="cls-1" d="M248.23,11.93c.94-2.28,2.3-5.84,2.86-7.68a8.66,8.66,0,0,1-1.16.1,4.75,4.75,0,0,1-1.27-.17l-.21-1.61s0-.06,0-.08,0-.06.06-.06h.1a5.06,5.06,0,0,0,1.6.27,7.23,7.23,0,0,0,1.29-.13A12.51,12.51,0,0,0,251.72.5s1.5.14,1.93.21c.22,0,.31.13.31.2s-.17.22-.42.25c0,.27-.13.66-.21,1,.56-.13,1.16-.29,1.77-.49V3.49l-2.16.45c-.49,1.75-1.93,5.67-2.7,8.19Zm7.09-3.31a1.36,1.36,0,0,0-.39.74c0,.52,1.09.87,2.27.87a9.11,9.11,0,0,0,2.44-.39,17.22,17.22,0,0,0-.41,1.86s0,.08-.08.1a9.83,9.83,0,0,1-1.72.15c-2.55,0-4.26-1.05-4.26-2.4a2.09,2.09,0,0,1,.45-1.23Zm-.62-4.5c.6-.06,1.25-.1,1.86-.1a7.72,7.72,0,0,1,3,.43l-.38,1.64s0,.07-.06.07H259a6.59,6.59,0,0,0-2.87-.5,14.47,14.47,0,0,0-1.72.11Z"/><path class="cls-1" d="M272.21,8.92a.12.12,0,0,1,0,.08s0,0,0,.06c-.84,1.78-1.67,2.58-2.59,2.58a2.48,2.48,0,0,1-1.22-.39c-1.89-1.11-2.4-3.1-2.4-6.08,0-.57,0-1.36,0-2,0-.18,0-.35,0-.5s0-.11.06-.11,2.26.17,2.26.42c0,.08-.14.18-.39.22,0,.41-.18,2.07-.18,3.1,0,1.27.21,2.54,1.37,3.19a.75.75,0,0,0,.38.13c.46,0,.84-.66,1.5-2.55A11.72,11.72,0,0,0,272.21,8.92Zm3.61.78s0,0-.07,0,0,0,0-.13,0-.18,0-.28a9.31,9.31,0,0,0-3-6.32l1.72-.55a9.57,9.57,0,0,1,3.18,6.25v.17Z"/><path class="cls-1" d="M284.83,8.73a2.07,2.07,0,1,1-2.07,2.07A2.08,2.08,0,0,1,284.83,8.73Zm0,3a.91.91,0,1,0-.91-.91A.91.91,0,0,0,284.83,11.71Z"/></g></g></svg>