<svg xmlns="http://www.w3.org/2000/svg" viewBox="0 0 316.96 46.35"><title>logo</title><g id="レイヤー_2" data-name="レイヤー 2"><g id="レイヤー_1-2" data-name="レイヤー 1"><path d="M0,44.25c11.55-.62,14.27-3.9,14.78-8H1.44v-2.1H14.89V31.57a15.42,15.42,0,0,0-.15-2.21c1.75,0,4.16.15,4.16.82,0,.46-.82.92-1.44,1a7.23,7.23,0,0,0-.1.92c-.05.56-.05,1.18-.05,2.1H28.49V33.11s-.05-1.8-.15-3.34c1.23,0,4,.05,4,.92,0,.36-.51.77-1.33.92A6.09,6.09,0,0,0,30.9,33v1.18H44.61v2.1H30.9v9.29H28.49V36.29H17.2C16.68,41,13.71,45.17,2.46,46.35Zm.87-16A35.89,35.89,0,0,0,13.09,25a42.35,42.35,0,0,0-4.47-3.54l1.49-1.23A48.09,48.09,0,0,1,15,23.92a15.16,15.16,0,0,0,5.39-5.44H10.21a34.25,34.25,0,0,1-7.55,4.21L.56,21.2a30.84,30.84,0,0,0,12.58-7.91H1.64v-2H44.3v2H28.23l-.05,6.42c4.31-1,10.68-2.72,13.19-4.26,1.85,1.85,2.05,2.52,2.05,2.77s-.21.41-.51.41A2,2,0,0,1,41.58,18a113.66,113.66,0,0,1-13.4,3.75v2.16c0,2.26,1.8,2.46,5,2.46,7.65,0,8.42-.1,9.09-6l2.41,2.21c-.87,5.75-4.21,6-10.88,6-4.88,0-7.8-.56-7.8-3.85L26,13.29H16a29.08,29.08,0,0,1-3.54,3.39H21c.15,0,.46-.31.72-.31a.18.18,0,0,0,.1.05c.21.21,1.13.87,1.69,1.44a.44.44,0,0,1,.15.31c0,.21-.31.41-.62.41-1.85,3.08-6.62,9.6-20.17,11.7ZM.67,4.11H15V3.49S15,1.64,14.89,0c3.9.15,3.9.56,3.9,1s-.46.77-1.33.92a9.11,9.11,0,0,0-.05,1.23v1h11V3.49L28.28,0c2,.1,3.9.21,3.9,1,0,.36-.51.77-1.33.92a7,7,0,0,0-.1,1.49v.72H45v2.1H30.75v3H28.39v-3h-11v3H15v-3H.67Z" style="fill:#2d2d2d"/><path d="M60.42,14.94A54.53,54.53,0,0,1,55.8,23l-2.46-.77C58,17.09,61.9,6.57,63.39,0,66.22.77,67,1.23,67,1.75c0,.31-.41.62-1.28.62l-.46-.05c-.77,2.26-1.85,5.44-3.23,8.88,1.44,0,2.16.46,2.16.77,0,.46-.87,1-1.59,1.13V45.17H60.26ZM67,42.5c1.28.1,2.57.26,3.64.26,1.9,0,3.29-.46,3.29-2.31V36.19c-2.16.31-4.41.62-6.67.87v.31c0,.67-.26,1.18-.62,1.18-.67,0-1.23-2-1.59-3.44,2.46-.05,5.75-.41,8.88-.82V29.67l-8.57.05V27.87L74,27.82v-3.9c-2,.31-4.16.62-6.42.82l-1.69-1.85A54.19,54.19,0,0,0,80,20.74c.72.51,2,1.54,2,2.1,0,.26-.21.41-.56.41a2,2,0,0,1-1.23-.56c-1.28.31-2.62.62-4,.87v4.26l8.73-.05c-.26-1.44-.41-2.77-.56-4-.1-.92-.26-2.52-.41-3.44,3.23.15,3.85.46,3.85.82s-.56.77-1.33.82A45.87,45.87,0,0,0,87,27.77l12.63-.05v1.85l-12.27.05a25.59,25.59,0,0,0,2.31,7,20.34,20.34,0,0,0,4.67-6c.46.26,2.72,1.49,2.72,2.21,0,.26-.21.41-.62.41a2.75,2.75,0,0,1-1-.26,27.91,27.91,0,0,1-4.77,5.39c2.26,3.08,4.77,3.9,5.29,3.9,2,0,2.46-4.36,2.62-5.6l2.1,1.85c-.46,2.46-1.64,6-4.52,6-1,0-4.16-.77-7-4.93A30.67,30.67,0,0,1,80,44.3l-2.21-1.64A28.23,28.23,0,0,0,88,37.88a32,32,0,0,1-2.77-8.26l-9.09.05v4.26c3-.46,5.65-.92,7.13-1.28l-.1,2c-2,.41-4.36.87-7,1.28v1.75c0,1.49.05,2.31.05,3.18V41c0,3.44-3.49,4-6.21,4l-1.39-.05ZM66,17.2H81.05v-4H69V11.4h12V7.65H67.5V5.8h9.19a36.07,36.07,0,0,0-3.08-4.72l2-1A66.39,66.39,0,0,1,79.2,5.8h6.57A38.48,38.48,0,0,0,89.06,0c2.77,1.13,3.13,1.28,3.13,1.75,0,.26-.41.46-.92.46a3,3,0,0,1-.67-.1,32.18,32.18,0,0,1-2.36,3.7h10V7.65H83.31V11.4H95.94v1.85H83.31v4H99.22v1.9H66Zm24.28,4.06a29.87,29.87,0,0,1,6,3.18l-1.49,1.69A25.82,25.82,0,0,0,89,22.69Z" style="fill:#2d2d2d"/><path d="M133.3,39.27c8.11-.72,20.28-5.8,20.28-16.58,0-7.29-6-13.14-14.73-13.5.05.67.1,1.33.1,2,0,10.68-8.11,21.3-10.57,23.82a5.3,5.3,0,0,1-3.75,1.9c-3.08,0-7-4.83-7-10.47,0-8.32,8.83-19.51,21-19.51,10.47,0,17.81,7.29,17.81,15.55,0,11-10.16,17.3-20,19.15ZM120.16,26.33c0,4.41,2.87,7.85,4.41,7.85,2.62,0,11.65-12.32,11.65-22.69,0-.72-.05-1.44-.1-2.16C127.45,10.47,120.16,19.09,120.16,26.33Z" style="fill:#2d2d2d"/><path d="M178.68,31.36c8.52,1.23,20.48,4.11,26.95,7.34l-1.13,3.18c-7.19-4.06-18.74-6.83-27-8Zm2.1-25.1a129.71,129.71,0,0,1,22.53,2.62l-1,3c-6.42-2.05-15.66-3-22.43-3.08Zm.77,12.17a96.85,96.85,0,0,1,19.71,3.39l-.77,3.08a69.33,69.33,0,0,0-19.81-4Z" style="fill:#2d2d2d"/><path d="M226.78,40c9.14-5.49,14.32-14,16.37-24.95-4.52,0-8.93,0-13.45.05l.05-2.46h13.81a77.76,77.76,0,0,0,.67-9.39c4.36.21,4.57.51,4.57,1s-.41.77-1.69.87c-.15,2.72-.41,5.18-.77,7.49h14.53c-.56,24.43-4.26,28.8-12.47,28.8a31.28,31.28,0,0,1-3.75-.26l-1.8-3.39a36.45,36.45,0,0,0,5.85.72c5.24,0,8.67-2.21,9.29-23.46H245.92c-2.57,13.35-8.32,20.48-16.17,26.59Z" style="fill:#2d2d2d"/><path d="M282,40.09a42.7,42.7,0,0,0,20.84-13,33.64,33.64,0,0,0-9.29-7l1.75-1.69a39.57,39.57,0,0,1,9.39,6.52,70.28,70.28,0,0,0,8.06-13.6l-14.83.05A53.72,53.72,0,0,1,285,23.82l-2.77-1.49a48.22,48.22,0,0,0,17.71-19.4c3.54,1,3.85,1.13,3.85,1.54s-.46.72-1.9.77c-.77,1.33-1.59,2.62-2.41,3.85,4.52,0,13.65-.05,13.91-.1s.67-.41,1-.41c0,0,2.62,1.64,2.62,2.31,0,.41-.62.62-1.23.72C309.88,23.3,301.41,37,284.83,42Z" style="fill:#2d2d2d"/></g></g></svg>