<svg xmlns="http://www.w3.org/2000/svg" viewBox="0 0 21.5 21.24"><title>reset-icon</title><g id="レイヤー_2" data-name="レイヤー 2"><g id="レイヤー_1-2" data-name="レイヤー 1"><path d="M21.23,8.3a10.78,10.78,0,0,0-4.78-6.81A10.52,10.52,0,0,0,8.18.41,10.48,10.48,0,0,0,2.85,4.17L0,2.47.07,13,8.15,7.36,5.62,5.84A7.19,7.19,0,0,1,9.08,3.49a7.31,7.31,0,0,1,5.71.74A7.54,7.54,0,0,1,18.1,9a7.5,7.5,0,0,1-.76,5.37,7.64,7.64,0,0,1-5,3.52,7.79,7.79,0,0,1-4.35-.41,1.61,1.61,0,0,0-1.18,3,11.19,11.19,0,0,0,4.07.78,10.7,10.7,0,0,0,2.08-.2A10.92,10.92,0,0,0,20.12,16,10.71,10.71,0,0,0,21.23,8.3Z" style="fill:#fff"/></g></g></svg>